<?xml version="1.0" encoding="UTF-8"?><svg id="Layer_1" xmlns="http://www.w3.org/2000/svg" viewBox="0 0 708.66 708.66"><defs><style>.cls-1{fill:#3f543b;}.cls-2{fill:#d5ba78;}.cls-3{fill:#131516;}</style></defs><g id="yZJRFF"><path class="cls-1" d="M481.92,331.88c-.76-.16-2.69-.52-2.86-1.4-.2-1.08.51-1.49,1.4-1.78,2.51-.83,9.86-.69,12.36.19.77.27,1.36.62,1.67,1.24l11.63-5.47c-1.95-2.25-4.85-3.76-7.91-4.65-9.61-2.8-34.22-3.1-33.13,11.99.83,11.38,16.73,9.88,24.52,10.88.78.1,2.92.44,3.36,1.05.7.97.07,1.98-.85,2.48-2.2,1.2-9.04,1.03-11.53.47-1.53-.34-3.82-1.09-3.8-2.96h-13.98c.11,8.99,8.95,12,16.49,12.75,9.66.96,27.03.54,28.02-12.39.96-12.56-17.43-10.78-25.39-12.4Z"/><path class="cls-1" d="M620.75,374.88c-.76-.16-2.69-.52-2.86-1.4-.2-1.08.51-1.49,1.4-1.78,2.51-.83,9.86-.69,12.36.19.77.27,1.36.62,1.67,1.24l11.63-5.47c-1.95-2.25-4.85-3.76-7.91-4.65-9.61-2.8-34.22-3.1-33.13,11.99.83,11.38,16.73,9.88,24.52,10.88.78.1,2.92.44,3.36,1.05.7.97.07,1.98-.85,2.48-2.2,1.2-9.04,1.03-11.53.47-1.53-.34-3.82-1.09-3.8-2.96h-13.98c.11,8.99,8.95,12,16.49,12.75,9.66.96,27.03.54,28.02-12.39.96-12.56-17.43-10.78-25.39-12.4Z"/><polygon class="cls-1" points="271.96 319.33 264.21 355.92 250.38 355.92 256.44 327.86 254.19 319.33 271.96 319.33"/><polygon class="cls-3" points="427.3 362.35 419.55 398.93 405.72 398.93 411.04 373.89 394.41 398.95 384.06 398.79 378.29 373.88 372.82 398.93 359.22 398.93 365.45 370.1 363.34 362.41 388.1 362.41 392.73 381.93 405.65 362.35 427.3 362.35"/><polygon class="cls-1" points="313.38 355.92 319.37 328.09 317.12 319.4 341.05 319.4 351.83 343.62 357 319.33 370.68 319.33 362.92 355.91 343.02 355.84 332.46 331.02 327.06 355.92 313.38 355.92"/><polygon class="cls-1" points="545.47 398.93 551.54 370.83 549.32 362.36 573.26 362.37 583.85 386.64 589.09 362.35 602.77 362.35 595 398.91 575.13 398.91 564.7 374.19 559.3 398.93 545.47 398.93"/><path class="cls-1" d="M518.95,361.63c12.62-.72,28.15,3.51,26.63,19.16-1.63,16.63-22.38,21.07-36.05,18.55-9.68-1.78-16.96-7.68-16.23-18.25.91-13.14,14.05-18.81,25.65-19.47ZM518.95,372.87c-4.59.36-10.37,2.65-11.57,7.57-2.01,8.25,9.37,8.91,14.82,7.82,4.18-.84,9.16-3.65,9.54-8.38.53-6.63-8.01-7.39-12.79-7.01Z"/><polygon class="cls-3" points="273.59 362.35 270.86 375.1 290.76 375.1 293.58 362.35 307.18 362.35 299.2 398.93 285.6 398.93 288.27 386.49 288.11 386.18 268.65 386.18 265.61 398.93 252.01 398.93 258.3 370.1 256.19 362.35 273.59 362.35"/><polygon class="cls-1" points="388.8 333.15 411.36 333.15 409.39 342.19 386.83 342.25 386.14 345.9 409.69 345.9 407.48 355.92 369.72 355.92 375.55 328.09 373.3 319.33 415.31 319.33 413.33 329.35 389.59 329.35 388.8 333.15"/><path class="cls-1" d="M460.73,362.34c9.59.45,15.87,4.51,13.68,15.04-1.71,8.23-9.3,12.21-17.17,12.6-5.31.27-10.72-.21-16.06,0l-1.96,8.96h-13.53l6.44-28.57-2.15-8.03h30.75ZM443.48,379.5c4.29.02,8.7.13,12.85,0,2.26-.07,5.03-.28,5.49-2.98.46-2.66-.97-3.27-3.22-3.4h-13.74s-1.38,6.37-1.38,6.37Z"/><path class="cls-3" d="M345.96,362.34l10,36.59h-13.68l-1.5-6.14-18.6-.06c-.22.08-.34.26-.48.43-1.31,1.66-2.3,4.07-3.66,5.76h-15.73l21.05-28.83-2.12-7.73,24.71-.03ZM338.49,383.15l-2.96-11.69-7.37,11.69h10.33Z"/><polyline class="cls-1" points="227.8 335.42 248.92 335.42 246.46 346.33 225.38 346.37 223.38 355.92 209.56 355.92 215.52 327.98 213.25 319.33 251.22 319.33 253.47 327.98 253.02 330.56 228.77 330.57"/><polygon class="cls-1" points="314.39 319.33 316.64 328.09 316.16 330.5 301.03 330.71 295.64 355.92 281.96 355.92 287.28 330.57 272.23 330.57 274.74 319.33 314.39 319.33"/><polygon class="cls-1" points="480.56 362.35 494.05 362.35 486.3 398.93 472.47 398.93 480.56 362.35"/><path class="cls-3" d="M232.95,388.04c-6.08,1.75-16.87.24-14.93-8.39,1.55-6.92,12.2-8.07,17.7-5.84,1.68.68,3.1,1.78,3.82,3.46l12.45-5.85c-4.9-9.11-18.3-10.93-28.15-9.33-8.7,1.42-17.43,6.55-19.38,15.71-3.92,18.4,14.33,23.9,29.03,21.72,8.5-1.27,17.43-6.33,18.95-15.46h-14.29c-.65,2.16-3.19,3.41-5.2,3.99Z"/><path class="cls-1" d="M239.59,377.38h14.21c-.23-2.28-.89-4.23-1.82-5.96l-12.45,5.85s.04.07.06.11Z"/><path class="cls-1" d="M434.71,331.88c-.76-.16-2.69-.52-2.86-1.4-.2-1.08.51-1.49,1.4-1.78,2.51-.83,9.86-.69,12.36.19.77.27,1.36.62,1.67,1.24l11.63-5.47c-1.95-2.25-4.85-3.76-7.91-4.65-9.61-2.8-34.22-3.1-33.13,11.99.83,11.38,16.73,9.88,24.52,10.88.78.1,2.92.44,3.36,1.05.7.97.07,1.98-.85,2.48-2.2,1.2-9.04,1.03-11.53.47-1.53-.34-3.82-1.09-3.8-2.96h-13.98c.11,8.99,8.95,12,16.49,12.75,9.66.96,27.03.54,28.02-12.39.96-12.56-17.43-10.78-25.39-12.4Z"/></g><g id="vSs8Ol"><path class="cls-1" d="M517.74,343.42l2.41,10.12c.05.05.68-.84.75-.93,2.23-3.02,4.33-6.13,6.54-9.16l3.39-.04,3.13,10.19,6.72-10.18h3.17l-8.3,12.49-3.58.03-.19-.06-2.88-9.87c-.18.11-.3.32-.43.49-2.33,3.09-4.5,6.32-6.81,9.43h-3.79s-2.92-12.51-2.92-12.51h2.79Z"/><path class="cls-1" d="M570.28,339.44l-1.39,6.39,1.61-1.2c3.36-2.19,10.65-2.78,11.49,2.39.2,1.24-.02,2.24-.25,3.44-.35,1.84-.83,3.66-1.18,5.49h-2.85l1.32-6.3c1.11-6.86-9.73-4.61-10.91.05l-1.38,6.25h-2.85l3.4-15.08,3-1.43Z"/><path class="cls-1" d="M557.42,343.42h6.08l-.45,2.14h-6.04s-.11.36-.13.45c-.41,1.68-.91,3.8-1.15,5.49-.15,1.05-.15,2.05,1.06,2.39,1.47.41,3.09-.03,4.56-.22l-.55,2.28c-.79.14-1.6.31-2.4.38-1.68.15-4.25.14-5.19-1.52-.8-1.41-.31-3.38-.02-4.88.28-1.45.65-2.9.93-4.35h-3.17l.5-2.12,3.14-.09.53-2.11,3.05-1.5-.76,3.67Z"/><polygon class="cls-1" points="548.99 343.42 546.39 355.95 543.54 355.95 546.2 343.42 548.99 343.42"/><polygon class="cls-1" points="549.87 339.44 549.34 341.91 546.64 341.91 547.09 339.44 549.87 339.44"/></g><path class="cls-1" d="M186.68,305.13l-1.09-4.74-4.56-1.73c-17.4-6.61-35.69-9.98-54.37-9.98s-36.95,3.37-54.37,9.98l-4.54,1.73-1.09,4.74c-7.08,30.82-5.16,54.71,5.68,76.65,9.87,19.95,26.87,35.58,50.53,46.42l3.78,1.74,3.8-1.73c23.66-10.85,40.66-26.46,50.52-46.43,10.85-21.95,12.77-45.83,5.7-76.65ZM111.59,327.14l5.04,3.08,2.75,8.58-4.12,3.93h-6.43c-.13,0-.22,0-.31.05-1.9-3.17-3.04-6.85-3.04-10.79,0-.45.05-.9.05-1.36l6.06-3.48ZM106.1,326.86c.77-2.95,2.19-5.66,4.03-7.97v5.67l-4.03,2.3ZM147.07,330.62c.04.46.04.92.04,1.36,0,3.94-1.09,7.62-2.99,10.79-.09-.05-.18-.05-.33-.05h-6.42l-4.09-4.12,2.82-8.64,4.88-2.82,6.08,3.48ZM142.5,324.56v-5.67c1.85,2.32,3.26,5.03,3.98,7.97l-3.98-2.3ZM140.68,374.72c-11.31-3.3-23.31,2.11-28.37,12.65l-4.67-35.01c4.96,4.57,11.54,7.44,18.8,7.44s13.63-2.79,18.57-7.25l-6.48,50.16c-1.05-1.99-2.66-3.69-4.73-4.87-2.76-1.55-4.81-4.14-5.66-7.19-.86-3.05-.46-6.32,1.09-9.07,2.3-4.05,6.68-6.44,11.31-6.18.42.04.54-.55.14-.67ZM115.87,413.64h-.05v-.07s.04.04.05.07ZM121.69,340.69h9.47l3.77,3.76-4.49,7.93-.04.04c-1.32.22-2.68.37-4.09.37s-2.76-.14-4.09-.37l-.04-.04-4.49-7.88,3.99-3.81ZM119.61,329.81l6.7-4.84,3.35,2.45,3.35,2.4-2.58,7.88h-8.29l-2.54-7.88ZM137.64,345.67h4.36c-.31.37-.64.72-.96,1.05-1.86,1.86-4.03,3.35-6.48,4.4l3.08-5.45ZM118.07,351.11c-2.45-1.05-4.61-2.54-6.48-4.4-.31-.33-.63-.68-.96-1.05h4.36l3.08,5.45ZM144.91,395.93l10.51-64.85c4.99-.56,11.06,3.4,13.97,5.74,0,.13,0,.29-.01.45,0,.18-.03.39-.05.6-.03.31-.08.68-.16,1.07-1.7,9.68-13.12,40.18-25.45,65.13l1.36-8.47c-.05.12-.12.22-.17.34ZM139.5,324.56l-4.86,2.8-6.83-4.99v-5.6l6.72-3.9c1.79.76,3.48,1.77,4.98,3.04v8.65ZM126.32,314.17l-4.35-2.58c1.4-.27,2.85-.46,4.35-.46s2.99.18,4.4.5l-4.4,2.54ZM124.82,316.77v5.6l-7.03,5.13-4.66-2.91v-8.69c1.49-1.27,3.18-2.32,5.03-3.09l6.66,3.95ZM109.12,403.55c-12.24-24.63-23.84-54.86-25.59-64.49-.07-.33-.1-.63-.14-.9-.04-.27-.07-.52-.07-.75-.01-.17-.01-.31-.01-.45,2.92-2.34,8.86-6.29,13.98-5.75l11.82,72.33ZM148.06,407.53c12.78-25.45,30.98-65.86,27.63-73.88-.2-.47-.5-.89-.88-1.23-.47-.43-11.34-9.89-21.63-7.76-3.23-11.8-13.93-20.53-26.75-20.53s-23.62,8.81-26.78,20.69c-10.32-2.21-21.28,7.33-21.76,7.78-.37.33-.67.73-.86,1.22-3.37,8.03,14.73,47.94,27.39,73.09-26.8-20.13-40-51.25-28.88-99.74,15.9-6.05,33.13-9.39,51.13-9.39s35.25,3.34,51.13,9.39c11.25,49-2.36,80.27-29.74,100.36Z"/><polygon class="cls-2" points="88.86 311.94 95.01 310.62 90.82 315.3 93.98 320.74 88.22 318.2 84.03 322.88 84.67 316.62 78.91 314.08 85.06 312.76 85.7 306.5 88.86 311.94"/><polygon class="cls-2" points="164.42 311.94 158.27 310.62 162.47 315.3 159.31 320.74 165.06 318.2 169.26 322.88 168.61 316.62 174.37 314.08 168.22 312.76 167.58 306.5 164.42 311.94"/><g id="YPDqLg"><polygon class="cls-1" points="121.62 278.86 122.97 283.47 124.62 278.86 127.62 278.87 129.25 283.5 130.6 278.86 132.89 278.86 130.94 285.02 127.67 285.02 126.12 280.78 124.59 285.02 121.32 285.04 119.37 278.86 121.62 278.86"/><path class="cls-1" d="M141.24,281.4h-2.42c-.22-.71-1.34-.81-1.97-.77-.89.06-1.71.64-1.49,1.62.24,1.08,1.71,1.2,2.59.97.35-.09.78-.3.87-.68h2.42c-.12,1.28-1.13,2.09-2.3,2.44-2.18.65-5.62.13-5.95-2.6-.23-1.91,1.1-3.17,2.87-3.52,1.99-.39,5.07.12,5.37,2.55Z"/><polygon class="cls-1" points="118.5 278.86 118.5 280.76 114.36 280.76 114.36 281.58 117.99 281.58 117.99 283.42 114.36 283.42 114.36 285.04 112.1 285.04 112.1 278.86 118.5 278.86"/></g><path class="cls-1" d="M109.18,285.2l-.12-2.13c-10.08.98-20.03,2.82-29.81,5.47l-.48,2.36c9.97-2.77,20.12-4.68,30.41-5.7Z"/><path class="cls-1" d="M108.97,281.46l-.12-2.13c-9.73.97-19.35,2.72-28.8,5.24l-.47,2.32c9.64-2.63,19.45-4.45,29.39-5.43Z"/><path class="cls-1" d="M144.57,283.1l-.1,2.14c10.18,1.02,20.22,2.91,30.08,5.66l-.48-2.36c-9.67-2.63-19.52-4.44-29.5-5.43Z"/><path class="cls-1" d="M144.75,279.36l-.1,2.13c9.84.99,19.55,2.79,29.09,5.4l-.47-2.32c-9.36-2.5-18.88-4.24-28.52-5.21Z"/></svg>